<?xml version="1.0" encoding="UTF-8" standalone="no"?>
<!DOCTYPE svg PUBLIC "-//W3C//DTD SVG 1.1//EN" "http://www.w3.org/Graphics/SVG/1.1/DTD/svg11.dtd">
<!-- Created with Vectornator (http://vectornator.io/) -->
<svg height="100%" stroke-miterlimit="10" style="fill-rule:nonzero;clip-rule:evenodd;stroke-linecap:round;stroke-linejoin:round;" version="1.1" viewBox="0 0 2048 2048" width="100%" xml:space="preserve" xmlns="http://www.w3.org/2000/svg" xmlns:xlink="http://www.w3.org/1999/xlink">
<defs/>
<g id="Background">
<path d="M0 0L2048 0L2048 2048L0 2048L0 0Z" fill="#abff33" fill-rule="nonzero" opacity="1" stroke="none"/>
</g>
<clipPath id="ArtboardFrame">
<rect height="2048" width="2048" x="0" y="0"/>
</clipPath>
<g clip-path="url(#ArtboardFrame)" id="Layer-4">
<path d="M1017.34 697.477L0 1911.85L0 1029.97L339.433 656.348L449.75 601.706L625.887 526.5L815.002 542.475L972.96 650.333L1017.34 697.477Z" fill="#cccccc" fill-rule="nonzero" opacity="1" stroke="#ffffff" stroke-linecap="butt" stroke-linejoin="round" stroke-opacity="0.00321437" stroke-width="10"/>
</g>
<g id="text">
<g fill="#000000" opacity="1" stroke="none">
<path d="M253.927 1215.9L159.933 1215.9L159.933 704.234L253.927 704.234L253.927 1026.89L393.038 850.523L500.362 850.523L379.025 1002.96L500.362 1215.9L393.038 1215.9L318.868 1082.95L253.927 1169.08L253.927 1215.9Z"/>
<path d="M671.603 1126.35C675.249 1127.49 678.894 1128.23 682.54 1128.58C686.186 1128.92 689.832 1129.09 693.478 1129.09C702.592 1129.09 711.365 1127.83 719.796 1125.33C728.227 1122.82 736.145 1119.23 743.551 1114.56C750.957 1109.89 757.565 1104.19 763.375 1097.47C769.186 1090.75 773.914 1083.29 777.56 1075.08L845.919 1143.79C837.26 1156.09 827.291 1167.14 816.012 1176.94C804.733 1186.74 792.542 1195.05 779.44 1201.89C766.337 1208.73 752.552 1213.91 738.082 1217.44C723.613 1220.97 708.745 1222.74 693.478 1222.74C667.729 1222.74 643.518 1217.96 620.846 1208.38C598.173 1198.81 578.349 1185.48 561.373 1168.39C544.397 1151.3 531.01 1130.97 521.212 1107.38C511.414 1083.8 506.515 1057.88 506.515 1029.62C506.515 1000.69 511.414 974.254 521.212 950.328C531.01 926.402 544.397 906.008 561.373 889.146C578.349 872.285 598.173 859.182 620.846 849.84C643.518 840.497 667.729 835.826 693.478 835.826C708.745 835.826 723.67 837.649 738.253 841.295C752.836 844.941 766.679 850.182 779.781 857.018C792.884 863.854 805.131 872.228 816.525 882.14C827.918 892.052 837.944 903.16 846.603 915.465L671.603 1126.35ZM719.454 933.922C715.125 932.327 710.852 931.301 706.637 930.846C702.421 930.39 698.035 930.162 693.478 930.162C680.717 930.162 668.697 932.498 657.418 937.169C646.139 941.84 636.341 948.505 628.024 957.164C619.707 965.823 613.155 976.248 608.37 988.438C603.585 1000.63 601.193 1014.36 601.193 1029.62C601.193 1033.04 601.363 1036.92 601.705 1041.25C602.047 1045.58 602.617 1049.96 603.414 1054.41C604.212 1058.85 605.18 1063.12 606.32 1067.22C607.459 1071.32 608.94 1074.97 610.763 1078.16L719.454 933.922Z"/>
<path d="M1036.3 1126.35C1039.95 1127.49 1043.59 1128.23 1047.24 1128.58C1050.88 1128.92 1054.53 1129.09 1058.17 1129.09C1067.29 1129.09 1076.06 1127.83 1084.49 1125.33C1092.92 1122.82 1100.84 1119.23 1108.25 1114.56C1115.65 1109.89 1122.26 1104.19 1128.07 1097.47C1133.88 1090.75 1138.61 1083.29 1142.26 1075.08L1210.62 1143.79C1201.96 1156.09 1191.99 1167.14 1180.71 1176.94C1169.43 1186.74 1157.24 1195.05 1144.14 1201.89C1131.03 1208.73 1117.25 1213.91 1102.78 1217.44C1088.31 1220.97 1073.44 1222.74 1058.17 1222.74C1032.43 1222.74 1008.22 1217.96 985.543 1208.38C962.871 1198.81 943.046 1185.48 926.071 1168.39C909.095 1151.3 895.708 1130.97 885.909 1107.38C876.111 1083.8 871.212 1057.88 871.212 1029.62C871.212 1000.69 876.111 974.254 885.909 950.328C895.708 926.402 909.095 906.008 926.071 889.146C943.046 872.285 962.871 859.182 985.543 849.84C1008.22 840.497 1032.43 835.826 1058.17 835.826C1073.44 835.826 1088.37 837.649 1102.95 841.295C1117.53 844.941 1131.38 850.182 1144.48 857.018C1157.58 863.854 1169.83 872.228 1181.22 882.14C1192.62 892.052 1202.64 903.16 1211.3 915.465L1036.3 1126.35ZM1084.15 933.922C1079.82 932.327 1075.55 931.301 1071.33 930.846C1067.12 930.39 1062.73 930.162 1058.17 930.162C1045.41 930.162 1033.39 932.498 1022.12 937.169C1010.84 941.84 1001.04 948.505 992.721 957.164C984.404 965.823 977.853 976.248 973.068 988.438C968.282 1000.63 965.89 1014.36 965.89 1029.62C965.89 1033.04 966.061 1036.92 966.403 1041.25C966.744 1045.58 967.314 1049.96 968.112 1054.41C968.909 1058.85 969.877 1063.12 971.017 1067.22C972.156 1071.32 973.637 1074.97 975.46 1078.16L1084.15 933.922Z"/>
<path d="M1376.73 1215.9L1283.42 1215.9L1283.42 942.809L1237.96 942.809L1237.96 849.84L1283.42 849.84L1283.42 832.408C1283.42 809.85 1287.69 788.658 1296.24 768.834C1304.78 749.01 1316.52 731.749 1331.44 717.052C1346.37 702.354 1363.74 690.733 1383.57 682.188C1403.39 673.644 1424.58 669.371 1447.14 669.371L1517.21 669.371L1517.21 762.34L1447.14 762.34C1437.11 762.34 1427.83 764.106 1419.28 767.638C1410.74 771.17 1403.33 776.069 1397.07 782.335C1390.8 788.601 1385.84 796.007 1382.2 804.552C1378.55 813.097 1376.73 822.382 1376.73 832.408L1376.73 849.84L1491.23 849.84L1491.23 942.809L1376.73 942.809L1376.73 1215.9Z"/>
<path d="M1882.93 1215.9L1860.37 1215.9L1824.14 1165.66C1815.26 1173.64 1805.86 1181.1 1795.94 1188.05C1786.03 1195 1775.61 1201.04 1764.67 1206.16C1753.73 1211.29 1742.51 1215.33 1731 1218.3C1719.49 1221.26 1707.82 1222.74 1695.97 1222.74C1670.22 1222.74 1646.01 1218.41 1623.34 1209.75C1600.66 1201.09 1580.84 1188.5 1563.86 1171.98C1546.89 1155.46 1533.5 1135.24 1523.7 1111.31C1513.9 1087.39 1509.01 1060.16 1509.01 1029.62C1509.01 1001.14 1513.9 974.994 1523.7 951.183C1533.5 927.371 1546.89 906.92 1563.86 889.83C1580.84 872.74 1600.66 859.467 1623.34 850.011C1646.01 840.554 1670.22 835.826 1695.97 835.826C1707.82 835.826 1719.55 837.307 1731.17 840.27C1742.79 843.232 1754.07 847.333 1765.01 852.574C1775.95 857.815 1786.37 863.967 1796.29 871.031C1806.2 878.095 1815.48 885.729 1824.14 893.932L1860.37 850.523L1882.93 850.523L1882.93 1215.9ZM1788.94 1029.62C1788.94 1016.86 1786.49 1004.5 1781.59 992.54C1776.69 980.577 1770.02 969.981 1761.59 960.753C1753.16 951.524 1743.31 944.119 1732.03 938.536C1720.75 932.953 1708.73 930.162 1695.97 930.162C1683.21 930.162 1671.19 932.327 1659.91 936.656C1648.63 940.986 1638.83 947.366 1630.51 955.797C1622.2 964.228 1615.65 974.653 1610.86 987.071C1606.08 999.49 1603.68 1013.67 1603.68 1029.62C1603.68 1045.58 1606.08 1059.76 1610.86 1072.18C1615.65 1084.6 1622.2 1095.02 1630.51 1103.45C1638.83 1111.88 1648.63 1118.26 1659.91 1122.59C1671.19 1126.92 1683.21 1129.09 1695.97 1129.09C1708.73 1129.09 1720.75 1126.3 1732.03 1120.71C1743.31 1115.13 1753.16 1107.73 1761.59 1098.5C1770.02 1089.27 1776.69 1078.67 1781.59 1066.71C1786.49 1054.75 1788.94 1042.39 1788.94 1029.62Z"/>
</g>
</g>
<g id="Layer-3">
<path d="M889.26 790.092C889.26 790.092 810.294 682.555 687.909 684.715C565.525 686.876 492.93 784.631 492.93 784.631" fill="#3395ff" fill-opacity="0" fill-rule="nonzero" opacity="1" stroke="#000000" stroke-linecap="butt" stroke-linejoin="round" stroke-width="90"/>
<path d="M998.335 663.697C998.335 663.697 876.206 506.749 686.447 510.255C496.688 513.761 383.856 656.841 383.856 656.841" fill="#3395ff" fill-opacity="0" fill-rule="nonzero" opacity="1" stroke="#000000" stroke-linecap="butt" stroke-linejoin="round" stroke-width="90"/>
</g>
<g id="Layer-1">
<path d="M979.327 663.697C979.327 652.106 987.837 642.71 998.335 642.71C1008.83 642.71 1017.34 652.106 1017.34 663.697C1017.34 675.287 1008.83 684.683 998.335 684.683C987.837 684.683 979.327 675.287 979.327 663.697Z" fill="#000000" fill-rule="nonzero" opacity="1" stroke="#000000" stroke-linecap="butt" stroke-linejoin="round" stroke-width="50"/>
</g>
<g id="Layer-1_2">
<path d="M364.848 657.558C364.848 645.968 373.358 636.572 383.856 636.572C394.354 636.572 402.864 645.968 402.864 657.558C402.864 669.149 394.354 678.545 383.856 678.545C373.358 678.545 364.848 669.149 364.848 657.558Z" fill="#000000" fill-rule="nonzero" opacity="1" stroke="#000000" stroke-linecap="butt" stroke-linejoin="round" stroke-width="50"/>
<path d="M870.252 790.596C870.252 779.006 878.762 769.61 889.26 769.61C899.758 769.61 908.268 779.006 908.268 790.596C908.268 802.187 899.758 811.583 889.26 811.583C878.762 811.583 870.252 802.187 870.252 790.596Z" fill="#000000" fill-rule="nonzero" opacity="1" stroke="#000000" stroke-linecap="butt" stroke-linejoin="round" stroke-width="50"/>
<path d="M473.922 784.385C473.922 772.795 482.432 763.399 492.93 763.399C503.428 763.399 511.938 772.795 511.938 784.385C511.938 795.976 503.428 805.372 492.93 805.372C482.432 805.372 473.922 795.976 473.922 784.385Z" fill="#000000" fill-rule="nonzero" opacity="1" stroke="#000000" stroke-linecap="butt" stroke-linejoin="round" stroke-width="50"/>
</g>
</svg>
