<?xml version="1.0" encoding="UTF-8" standalone="no"?>
<!DOCTYPE svg PUBLIC "-//W3C//DTD SVG 1.1//EN" "http://www.w3.org/Graphics/SVG/1.1/DTD/svg11.dtd">
<!-- Created with Vectornator (http://vectornator.io/) -->
<svg height="100%" stroke-miterlimit="10" style="fill-rule:nonzero;clip-rule:evenodd;stroke-linecap:round;stroke-linejoin:round;" version="1.1" viewBox="0 0 1536 396" width="100%" xml:space="preserve" xmlns="http://www.w3.org/2000/svg" xmlns:xlink="http://www.w3.org/1999/xlink">
<defs/>
<g id="Layer-1">
<g fill="#ffffff" opacity="1" stroke="none">
<path d="M67.3168 357.945C87.4168 357.945 98.3168 345.045 100.217 330.245L83.8168 330.245C83.0168 338.245 77.9168 345.845 67.3168 345.845C56.4168 345.845 49.0168 337.545 49.0168 321.045C49.0168 304.545 55.9168 296.445 67.3168 296.445C78.1168 296.445 83.1168 303.845 83.8168 312.545L100.217 312.545C98.8168 297.045 87.7168 284.345 67.3168 284.345C45.4168 284.345 32.3168 298.545 32.3168 321.045C32.3168 343.545 46.4168 357.945 67.3168 357.945Z"/>
<path d="M140.617 357.945C160.417 357.945 175.417 345.145 175.417 321.145C175.417 297.145 160.417 284.345 140.617 284.345C120.717 284.345 105.817 297.145 105.817 321.145C105.817 345.145 120.717 357.945 140.617 357.945ZM122.517 321.145C122.517 304.045 129.917 296.445 140.617 296.445C151.317 296.445 158.717 304.045 158.717 321.145C158.717 338.245 151.317 345.845 140.617 345.845C129.917 345.845 122.517 338.245 122.517 321.145Z"/>
<path d="M226.217 356.145L244.617 356.145L244.617 286.145L229.317 286.145L229.317 320.745L229.417 332.745L229.217 332.745L202.717 286.145L183.717 286.145L183.717 356.145L199.017 356.145L199.017 320.945L198.917 308.945L199.117 308.945L226.217 356.145Z"/>
<path d="M255.617 356.145L306.317 356.145L306.317 344.645L271.317 344.645L271.317 326.445L302.317 326.445L302.317 314.945L271.317 314.945L271.317 297.645L306.217 297.645L306.217 286.145L255.617 286.145L255.617 356.145ZM273.717 279.845L288.617 279.845L298.617 263.645L281.717 263.645L273.717 279.845Z"/>
<path d="M345.317 357.945C365.417 357.945 376.317 345.045 378.217 330.245L361.817 330.245C361.017 338.245 355.917 345.845 345.317 345.845C334.417 345.845 327.017 337.545 327.017 321.045C327.017 304.545 333.917 296.445 345.317 296.445C356.117 296.445 361.117 303.845 361.817 312.545L378.217 312.545C376.817 297.045 365.717 284.345 345.317 284.345C323.417 284.345 310.317 298.545 310.317 321.045C310.317 343.545 324.417 357.945 345.317 357.945Z"/>
<path d="M402.117 356.145L417.717 356.145L417.717 298.245L439.917 298.245L439.917 286.145L380.017 286.145L380.017 298.245L402.117 298.245L402.117 356.145Z"/>
<path d="M429.817 356.145L446.117 356.145L451.217 341.345L476.617 341.345L481.617 356.145L498.317 356.145L471.917 286.145L456.217 286.145L429.817 356.145ZM455.317 329.245L457.517 322.845C460.617 313.645 462.517 307.145 463.817 302.045L463.917 302.045C465.217 307.145 467.117 313.645 470.017 322.145L472.417 329.245L455.317 329.245Z"/>
<path d="M510.317 356.145L525.917 356.145L525.917 298.245L548.117 298.245L548.117 286.145L488.217 286.145L488.217 298.245L510.317 298.245L510.317 356.145Z"/>
<path d="M554.817 356.145L605.517 356.145L605.517 344.645L570.517 344.645L570.517 326.445L601.517 326.445L601.517 314.945L570.517 314.945L570.517 297.645L605.417 297.645L605.417 286.145L554.817 286.145L554.817 356.145Z"/>
<path d="M665.417 357.945C685.517 357.945 696.417 345.045 698.317 330.245L681.917 330.245C681.117 338.245 676.017 345.845 665.417 345.845C654.517 345.845 647.117 337.545 647.117 321.045C647.117 304.545 654.017 296.445 665.417 296.445C676.217 296.445 681.217 303.845 681.917 312.545L698.317 312.545C696.917 297.045 685.817 284.345 665.417 284.345C643.517 284.345 630.417 298.545 630.417 321.045C630.417 343.545 644.517 357.945 665.417 357.945Z"/>
<path d="M738.717 357.945C758.517 357.945 773.517 345.145 773.517 321.145C773.517 297.145 758.517 284.345 738.717 284.345C718.817 284.345 703.917 297.145 703.917 321.145C703.917 345.145 718.817 357.945 738.717 357.945ZM720.617 321.145C720.617 304.045 728.017 296.445 738.717 296.445C749.417 296.445 756.817 304.045 756.817 321.145C756.817 338.245 749.417 345.845 738.717 345.845C728.017 345.845 720.617 338.245 720.617 321.145Z"/>
<path d="M824.317 356.145L842.717 356.145L842.717 286.145L827.417 286.145L827.417 320.745L827.517 332.745L827.317 332.745L800.817 286.145L781.817 286.145L781.817 356.145L797.117 356.145L797.117 320.945L797.017 308.945L797.217 308.945L824.317 356.145Z"/>
<path d="M891.317 356.145L906.917 356.145L906.917 298.245L929.117 298.245L929.117 286.145L869.217 286.145L869.217 298.245L891.317 298.245L891.317 356.145Z"/>
<path d="M964.717 357.945C981.017 357.945 993.517 348.245 993.517 330.545L993.517 286.145L977.917 286.145L977.917 329.845C977.917 340.345 972.617 345.845 964.717 345.845C956.717 345.845 951.417 340.345 951.417 329.845L951.417 286.145L935.817 286.145L935.817 330.545C935.817 348.245 948.417 357.945 964.717 357.945Z"/>
<path d="M1024.32 356.145L1075.02 356.145L1075.02 344.645L1040.02 344.645L1040.02 326.445L1071.02 326.445L1071.02 314.945L1040.02 314.945L1040.02 297.645L1074.92 297.645L1074.92 286.145L1024.32 286.145L1024.32 356.145Z"/>
<path d="M1125.32 356.145L1143.72 356.145L1143.72 286.145L1128.42 286.145L1128.42 320.745L1128.52 332.745L1128.32 332.745L1101.82 286.145L1082.82 286.145L1082.82 356.145L1098.12 356.145L1098.12 320.945L1098.02 308.945L1098.22 308.945L1125.32 356.145Z"/>
<path d="M1172.52 356.145L1188.12 356.145L1188.12 298.245L1210.32 298.245L1210.32 286.145L1150.42 286.145L1150.42 298.245L1172.52 298.245L1172.52 356.145Z"/>
<path d="M1245.92 357.945C1265.72 357.945 1280.72 345.145 1280.72 321.145C1280.72 297.145 1265.72 284.345 1245.92 284.345C1226.02 284.345 1211.12 297.145 1211.12 321.145C1211.12 345.145 1226.02 357.945 1245.92 357.945ZM1227.82 321.145C1227.82 304.045 1235.22 296.445 1245.92 296.445C1256.62 296.445 1264.02 304.045 1264.02 321.145C1264.02 338.245 1256.62 345.845 1245.92 345.845C1235.22 345.845 1227.82 338.245 1227.82 321.145Z"/>
<path d="M1289.02 356.145L1304.62 356.145L1304.62 329.945L1313.02 329.945C1322.62 329.945 1325.82 332.745 1328.32 343.945L1331.02 356.145L1347.32 356.145L1343.32 341.645C1340.62 332.145 1337.02 326.145 1328.82 323.145L1328.82 322.945C1339.52 320.945 1345.22 314.245 1345.22 305.145C1345.22 293.545 1336.12 286.145 1320.12 286.145L1289.02 286.145L1289.02 356.145ZM1304.62 317.845L1304.62 298.245L1316.62 298.245C1325.22 298.245 1329.12 301.845 1329.12 307.845C1329.12 314.145 1324.62 317.845 1314.92 317.845L1304.62 317.845Z"/>
<path d="M1396.62 356.145L1415.02 356.145L1415.02 286.145L1399.72 286.145L1399.72 320.745L1399.82 332.745L1399.62 332.745L1373.12 286.145L1354.12 286.145L1354.12 356.145L1369.42 356.145L1369.42 320.945L1369.32 308.945L1369.52 308.945L1396.62 356.145Z"/>
<path d="M1458.12 357.945C1477.92 357.945 1492.92 345.145 1492.92 321.145C1492.92 297.145 1477.92 284.345 1458.12 284.345C1438.22 284.345 1423.32 297.145 1423.32 321.145C1423.32 345.145 1438.22 357.945 1458.12 357.945ZM1440.02 321.145C1440.02 304.045 1447.42 296.445 1458.12 296.445C1468.82 296.445 1476.22 304.045 1476.22 321.145C1476.22 338.245 1468.82 345.845 1458.12 345.845C1447.42 345.845 1440.02 338.245 1440.02 321.145Z"/>
</g>
</g>
</svg>
