<?xml version="1.0" encoding="UTF-8" standalone="no"?>
<!DOCTYPE svg PUBLIC "-//W3C//DTD SVG 1.1//EN" "http://www.w3.org/Graphics/SVG/1.1/DTD/svg11.dtd">
<!-- Created with Vectornator (http://vectornator.io/) -->
<svg height="100%" stroke-miterlimit="10" style="fill-rule:nonzero;clip-rule:evenodd;stroke-linecap:round;stroke-linejoin:round;" version="1.1" viewBox="0 0 1536 396" width="100%" xml:space="preserve" xmlns="http://www.w3.org/2000/svg" xmlns:xlink="http://www.w3.org/1999/xlink">
<defs/>
<g id="Layer-1">
<g fill="#ffffff" opacity="1" stroke="none">
<path d="M162.839 357.945C182.939 357.945 193.839 345.045 195.739 330.245L179.339 330.245C178.539 338.245 173.439 345.845 162.839 345.845C151.939 345.845 144.539 337.545 144.539 321.045C144.539 304.545 151.439 296.445 162.839 296.445C173.639 296.445 178.639 303.845 179.339 312.545L195.739 312.545C194.339 297.045 183.239 284.345 162.839 284.345C140.939 284.345 127.839 298.545 127.839 321.045C127.839 343.545 141.939 357.945 162.839 357.945Z"/>
<path d="M236.139 357.945C255.939 357.945 270.939 345.145 270.939 321.145C270.939 297.145 255.939 284.345 236.139 284.345C216.239 284.345 201.339 297.145 201.339 321.145C201.339 345.145 216.239 357.945 236.139 357.945ZM218.039 321.145C218.039 304.045 225.439 296.445 236.139 296.445C246.839 296.445 254.239 304.045 254.239 321.145C254.239 338.245 246.839 345.845 236.139 345.845C225.439 345.845 218.039 338.245 218.039 321.145Z"/>
<path d="M321.739 356.145L340.139 356.145L340.139 286.145L324.839 286.145L324.839 320.745L324.939 332.745L324.739 332.745L298.239 286.145L279.239 286.145L279.239 356.145L294.539 356.145L294.539 320.945L294.439 308.945L294.639 308.945L321.739 356.145Z"/>
<path d="M393.639 356.145L412.039 356.145L412.039 286.145L396.739 286.145L396.739 320.745L396.839 332.745L396.639 332.745L370.139 286.145L351.139 286.145L351.139 356.145L366.439 356.145L366.439 320.945L366.339 308.945L366.539 308.945L393.639 356.145Z"/>
<path d="M423.039 356.145L473.739 356.145L473.739 344.645L438.739 344.645L438.739 326.445L469.739 326.445L469.739 314.945L438.739 314.945L438.739 297.645L473.639 297.645L473.639 286.145L423.039 286.145L423.039 356.145Z"/>
<path d="M512.639 357.945C532.739 357.945 543.639 345.045 545.539 330.245L529.139 330.245C528.339 338.245 523.239 345.845 512.639 345.845C501.739 345.845 494.339 337.545 494.339 321.045C494.339 304.545 501.239 296.445 512.639 296.445C523.439 296.445 528.439 303.845 529.139 312.545L545.539 312.545C544.139 297.045 533.039 284.345 512.639 284.345C490.739 284.345 477.639 298.545 477.639 321.045C477.639 343.545 491.739 357.945 512.639 357.945Z"/>
<path d="M569.439 356.145L585.039 356.145L585.039 298.245L607.239 298.245L607.239 286.145L547.339 286.145L547.339 298.245L569.439 298.245L569.439 356.145Z"/>
<path d="M651.539 356.145L667.139 356.145L667.139 298.245L689.339 298.245L689.339 286.145L629.439 286.145L629.439 298.245L651.539 298.245L651.539 356.145Z"/>
<path d="M724.939 357.945C744.739 357.945 759.739 345.145 759.739 321.145C759.739 297.145 744.739 284.345 724.939 284.345C705.039 284.345 690.139 297.145 690.139 321.145C690.139 345.145 705.039 357.945 724.939 357.945ZM706.839 321.145C706.839 304.045 714.239 296.445 724.939 296.445C735.639 296.445 743.039 304.045 743.039 321.145C743.039 338.245 735.639 345.845 724.939 345.845C714.239 345.845 706.839 338.245 706.839 321.145Z"/>
<path d="M808.039 356.145L823.639 356.145L823.639 328.345L848.339 286.145L830.339 286.145L815.939 313.445L815.739 313.445L801.339 286.145L783.339 286.145L808.039 328.345L808.039 356.145Z"/>
<path d="M880.839 357.945C900.639 357.945 915.639 345.145 915.639 321.145C915.639 297.145 900.639 284.345 880.839 284.345C860.939 284.345 846.039 297.145 846.039 321.145C846.039 345.145 860.939 357.945 880.839 357.945ZM862.739 321.145C862.739 304.045 870.139 296.445 880.839 296.445C891.539 296.445 898.939 304.045 898.939 321.145C898.939 338.245 891.539 345.845 880.839 345.845C870.139 345.845 862.739 338.245 862.739 321.145Z"/>
<path d="M952.839 357.945C969.139 357.945 981.639 348.245 981.639 330.545L981.639 286.145L966.039 286.145L966.039 329.845C966.039 340.345 960.739 345.845 952.839 345.845C944.839 345.845 939.539 340.345 939.539 329.845L939.539 286.145L923.939 286.145L923.939 330.545C923.939 348.245 936.539 357.945 952.839 357.945Z"/>
<path d="M992.639 356.145L1008.24 356.145L1008.24 329.945L1016.64 329.945C1026.24 329.945 1029.44 332.745 1031.94 343.945L1034.64 356.145L1050.94 356.145L1046.94 341.645C1044.24 332.145 1040.64 326.145 1032.44 323.145L1032.44 322.945C1043.14 320.945 1048.84 314.245 1048.84 305.145C1048.84 293.545 1039.74 286.145 1023.74 286.145L992.639 286.145L992.639 356.145ZM1008.24 317.845L1008.24 298.245L1020.24 298.245C1028.84 298.245 1032.74 301.845 1032.74 307.845C1032.74 314.145 1028.24 317.845 1018.54 317.845L1008.24 317.845Z"/>
<path d="M1105.74 357.945C1124.84 357.945 1135.94 348.445 1135.94 334.145C1135.94 322.845 1129.04 313.845 1111.74 313.845L1102.94 313.845C1095.34 313.845 1092.24 310.545 1092.24 305.845C1092.24 300.045 1096.94 296.445 1105.24 296.445C1114.04 296.445 1118.54 300.445 1118.74 308.945L1134.94 308.945C1134.64 293.845 1125.04 284.345 1105.44 284.345C1086.44 284.345 1076.04 293.145 1076.04 306.845C1076.04 318.345 1083.44 326.345 1099.14 326.345L1107.94 326.345C1116.04 326.345 1119.34 329.945 1119.34 335.145C1119.34 341.745 1114.14 345.845 1105.94 345.845C1097.14 345.845 1091.84 341.345 1091.64 331.945L1075.04 331.945C1075.24 348.145 1086.14 357.945 1105.74 357.945Z"/>
<path d="M1144.44 356.145L1160.04 356.145L1160.04 330.745L1177.04 330.745C1191.04 330.745 1201.14 322.745 1201.14 308.545C1201.14 294.245 1191.04 286.145 1177.04 286.145L1144.44 286.145L1144.44 356.145ZM1160.04 318.645L1160.04 298.245L1173.14 298.245C1180.54 298.245 1185.04 302.345 1185.04 308.545C1185.04 314.745 1180.54 318.645 1173.14 318.645L1160.04 318.645Z"/>
<path d="M1195.24 356.145L1211.54 356.145L1216.64 341.345L1242.04 341.345L1247.04 356.145L1263.74 356.145L1237.34 286.145L1221.64 286.145L1195.24 356.145ZM1220.74 329.245L1222.94 322.845C1226.04 313.645 1227.94 307.145 1229.24 302.045L1229.34 302.045C1230.64 307.145 1232.54 313.645 1235.44 322.145L1237.84 329.245L1220.74 329.245Z"/>
<path d="M1298.44 357.945C1318.54 357.945 1329.44 345.045 1331.34 330.245L1314.94 330.245C1314.14 338.245 1309.04 345.845 1298.44 345.845C1287.54 345.845 1280.14 337.545 1280.14 321.045C1280.14 304.545 1287.04 296.445 1298.44 296.445C1309.24 296.445 1314.24 303.845 1314.94 312.545L1331.34 312.545C1329.94 297.045 1318.84 284.345 1298.44 284.345C1276.54 284.345 1263.44 298.545 1263.44 321.045C1263.44 343.545 1277.54 357.945 1298.44 357.945Z"/>
<path d="M1339.44 356.145L1390.14 356.145L1390.14 344.645L1355.14 344.645L1355.14 326.445L1386.14 326.445L1386.14 314.945L1355.14 314.945L1355.14 297.645L1390.04 297.645L1390.04 286.145L1339.44 286.145L1339.44 356.145Z"/>
</g>
</g>
</svg>
