<?xml version="1.0" encoding="UTF-8" standalone="no"?>
<!DOCTYPE svg PUBLIC "-//W3C//DTD SVG 1.1//EN" "http://www.w3.org/Graphics/SVG/1.1/DTD/svg11.dtd">
<!-- Created with Vectornator (http://vectornator.io/) -->
<svg height="100%" stroke-miterlimit="10" style="fill-rule:nonzero;clip-rule:evenodd;stroke-linecap:round;stroke-linejoin:round;" version="1.1" viewBox="0 0 1536 396" width="100%" xml:space="preserve" xmlns="http://www.w3.org/2000/svg" xmlns:xlink="http://www.w3.org/1999/xlink">
<defs/>
<clipPath id="ArtboardFrame">
<rect height="396" width="1536" x="0" y="0"/>
</clipPath>
<g clip-path="url(#ArtboardFrame)" id="Layer-1">
<g fill="#000000" opacity="1" stroke="none">
<path d="M169.248 397.8C189.348 397.8 200.248 384.9 202.148 370.1L185.748 370.1C184.948 378.1 179.848 385.7 169.248 385.7C158.348 385.7 150.948 377.4 150.948 360.9C150.948 344.4 157.848 336.3 169.248 336.3C180.048 336.3 185.048 343.7 185.748 352.4L202.148 352.4C200.748 336.9 189.648 324.2 169.248 324.2C147.348 324.2 134.248 338.4 134.248 360.9C134.248 383.4 148.348 397.8 169.248 397.8Z"/>
<path d="M242.548 397.8C262.348 397.8 277.348 385 277.348 361C277.348 337 262.348 324.2 242.548 324.2C222.648 324.2 207.748 337 207.748 361C207.748 385 222.648 397.8 242.548 397.8ZM224.448 361C224.448 343.9 231.848 336.3 242.548 336.3C253.248 336.3 260.648 343.9 260.648 361C260.648 378.1 253.248 385.7 242.548 385.7C231.848 385.7 224.448 378.1 224.448 361Z"/>
<path d="M328.148 396L346.548 396L346.548 326L331.248 326L331.248 360.6L331.348 372.6L331.148 372.6L304.648 326L285.648 326L285.648 396L300.948 396L300.948 360.8L300.848 348.8L301.048 348.8L328.148 396Z"/>
<path d="M400.048 396L418.448 396L418.448 326L403.148 326L403.148 360.6L403.248 372.6L403.048 372.6L376.548 326L357.548 326L357.548 396L372.848 396L372.848 360.8L372.748 348.8L372.948 348.8L400.048 396Z"/>
<path d="M429.448 396L480.148 396L480.148 384.5L445.148 384.5L445.148 366.3L476.148 366.3L476.148 354.8L445.148 354.8L445.148 337.5L480.048 337.5L480.048 326L429.448 326L429.448 396Z"/>
<path d="M519.048 397.8C539.148 397.8 550.048 384.9 551.948 370.1L535.548 370.1C534.748 378.1 529.648 385.7 519.048 385.7C508.148 385.7 500.748 377.4 500.748 360.9C500.748 344.4 507.648 336.3 519.048 336.3C529.848 336.3 534.848 343.7 535.548 352.4L551.948 352.4C550.548 336.9 539.448 324.2 519.048 324.2C497.148 324.2 484.048 338.4 484.048 360.9C484.048 383.4 498.148 397.8 519.048 397.8Z"/>
<path d="M575.848 396L591.448 396L591.448 338.1L613.648 338.1L613.648 326L553.748 326L553.748 338.1L575.848 338.1L575.848 396Z"/>
<path d="M657.948 396L673.548 396L673.548 338.1L695.748 338.1L695.748 326L635.848 326L635.848 338.1L657.948 338.1L657.948 396Z"/>
<path d="M731.348 397.8C751.148 397.8 766.148 385 766.148 361C766.148 337 751.148 324.2 731.348 324.2C711.448 324.2 696.548 337 696.548 361C696.548 385 711.448 397.8 731.348 397.8ZM713.248 361C713.248 343.9 720.648 336.3 731.348 336.3C742.048 336.3 749.448 343.9 749.448 361C749.448 378.1 742.048 385.7 731.348 385.7C720.648 385.7 713.248 378.1 713.248 361Z"/>
<path d="M814.448 396L830.048 396L830.048 368.2L854.748 326L836.748 326L822.348 353.3L822.148 353.3L807.748 326L789.748 326L814.448 368.2L814.448 396Z"/>
<path d="M887.248 397.8C907.048 397.8 922.048 385 922.048 361C922.048 337 907.048 324.2 887.248 324.2C867.348 324.2 852.448 337 852.448 361C852.448 385 867.348 397.8 887.248 397.8ZM869.148 361C869.148 343.9 876.548 336.3 887.248 336.3C897.948 336.3 905.348 343.9 905.348 361C905.348 378.1 897.948 385.7 887.248 385.7C876.548 385.7 869.148 378.1 869.148 361Z"/>
<path d="M959.248 397.8C975.548 397.8 988.048 388.1 988.048 370.4L988.048 326L972.448 326L972.448 369.7C972.448 380.2 967.148 385.7 959.248 385.7C951.248 385.7 945.948 380.2 945.948 369.7L945.948 326L930.348 326L930.348 370.4C930.348 388.1 942.948 397.8 959.248 397.8Z"/>
<path d="M999.048 396L1014.65 396L1014.65 369.8L1023.05 369.8C1032.65 369.8 1035.85 372.6 1038.35 383.8L1041.05 396L1057.35 396L1053.35 381.5C1050.65 372 1047.05 366 1038.85 363L1038.85 362.8C1049.55 360.8 1055.25 354.1 1055.25 345C1055.25 333.4 1046.15 326 1030.15 326L999.048 326L999.048 396ZM1014.65 357.7L1014.65 338.1L1026.65 338.1C1035.25 338.1 1039.15 341.7 1039.15 347.7C1039.15 354 1034.65 357.7 1024.95 357.7L1014.65 357.7Z"/>
<path d="M1112.15 397.8C1131.25 397.8 1142.35 388.3 1142.35 374C1142.35 362.7 1135.45 353.7 1118.15 353.7L1109.35 353.7C1101.75 353.7 1098.65 350.4 1098.65 345.7C1098.65 339.9 1103.35 336.3 1111.65 336.3C1120.45 336.3 1124.95 340.3 1125.15 348.8L1141.35 348.8C1141.05 333.7 1131.45 324.2 1111.85 324.2C1092.85 324.2 1082.45 333 1082.45 346.7C1082.45 358.2 1089.85 366.2 1105.55 366.2L1114.35 366.2C1122.45 366.2 1125.75 369.8 1125.75 375C1125.75 381.6 1120.55 385.7 1112.35 385.7C1103.55 385.7 1098.25 381.2 1098.05 371.8L1081.45 371.8C1081.65 388 1092.55 397.8 1112.15 397.8Z"/>
<path d="M1150.85 396L1166.45 396L1166.45 370.6L1183.45 370.6C1197.45 370.6 1207.55 362.6 1207.55 348.4C1207.55 334.1 1197.45 326 1183.45 326L1150.85 326L1150.85 396ZM1166.45 358.5L1166.45 338.1L1179.55 338.1C1186.95 338.1 1191.45 342.2 1191.45 348.4C1191.45 354.6 1186.95 358.5 1179.55 358.5L1166.45 358.5Z"/>
<path d="M1201.65 396L1217.95 396L1223.05 381.2L1248.45 381.2L1253.45 396L1270.15 396L1243.75 326L1228.05 326L1201.65 396ZM1227.15 369.1L1229.35 362.7C1232.45 353.5 1234.35 347 1235.65 341.9L1235.75 341.9C1237.05 347 1238.95 353.5 1241.85 362L1244.25 369.1L1227.15 369.1Z"/>
<path d="M1304.85 397.8C1324.95 397.8 1335.85 384.9 1337.75 370.1L1321.35 370.1C1320.55 378.1 1315.45 385.7 1304.85 385.7C1293.95 385.7 1286.55 377.4 1286.55 360.9C1286.55 344.4 1293.45 336.3 1304.85 336.3C1315.65 336.3 1320.65 343.7 1321.35 352.4L1337.75 352.4C1336.35 336.9 1325.25 324.2 1304.85 324.2C1282.95 324.2 1269.85 338.4 1269.85 360.9C1269.85 383.4 1283.95 397.8 1304.85 397.8Z"/>
<path d="M1345.85 396L1396.55 396L1396.55 384.5L1361.55 384.5L1361.55 366.3L1392.55 366.3L1392.55 354.8L1361.55 354.8L1361.55 337.5L1396.45 337.5L1396.45 326L1345.85 326L1345.85 396Z"/>
</g>
</g>
</svg>
