<?xml version="1.0" encoding="UTF-8" standalone="no"?>
<!DOCTYPE svg PUBLIC "-//W3C//DTD SVG 1.1//EN" "http://www.w3.org/Graphics/SVG/1.1/DTD/svg11.dtd">
<!-- Created with Vectornator (http://vectornator.io/) -->
<svg viewBox="0 0 1536 396" xmlns="http://www.w3.org/2000/svg" preserveAspectRatio="xMidYMid meet">
<defs/>
<clipPath id="ArtboardFrame">
<rect height="396" width="1536" x="0" y="0"/>
</clipPath>
<g clip-path="url(#ArtboardFrame)" id="Layer-1">
<g fill="#ffffff" opacity="1" stroke="none">
<path d="M170.823 397.8C190.923 397.8 201.823 384.9 203.723 370.1L187.323 370.1C186.523 378.1 181.423 385.7 170.823 385.7C159.923 385.7 152.523 377.4 152.523 360.9C152.523 344.4 159.423 336.3 170.823 336.3C181.623 336.3 186.623 343.7 187.323 352.4L203.723 352.4C202.323 336.9 191.223 324.2 170.823 324.2C148.923 324.2 135.823 338.4 135.823 360.9C135.823 383.4 149.923 397.8 170.823 397.8Z"/>
<path d="M244.123 397.8C263.923 397.8 278.923 385 278.923 361C278.923 337 263.923 324.2 244.123 324.2C224.223 324.2 209.323 337 209.323 361C209.323 385 224.223 397.8 244.123 397.8ZM226.023 361C226.023 343.9 233.423 336.3 244.123 336.3C254.823 336.3 262.223 343.9 262.223 361C262.223 378.1 254.823 385.7 244.123 385.7C233.423 385.7 226.023 378.1 226.023 361Z"/>
<path d="M329.723 396L348.123 396L348.123 326L332.823 326L332.823 360.6L332.923 372.6L332.723 372.6L306.223 326L287.223 326L287.223 396L302.523 396L302.523 360.8L302.423 348.8L302.623 348.8L329.723 396Z"/>
<path d="M401.623 396L420.023 396L420.023 326L404.723 326L404.723 360.6L404.823 372.6L404.623 372.6L378.123 326L359.123 326L359.123 396L374.423 396L374.423 360.8L374.323 348.8L374.523 348.8L401.623 396Z"/>
<path d="M431.023 396L481.723 396L481.723 384.5L446.723 384.5L446.723 366.3L477.723 366.3L477.723 354.8L446.723 354.8L446.723 337.5L481.623 337.5L481.623 326L431.023 326L431.023 396Z"/>
<path d="M520.623 397.8C540.723 397.8 551.623 384.9 553.523 370.1L537.123 370.1C536.323 378.1 531.223 385.7 520.623 385.7C509.723 385.7 502.323 377.4 502.323 360.9C502.323 344.4 509.223 336.3 520.623 336.3C531.423 336.3 536.423 343.7 537.123 352.4L553.523 352.4C552.123 336.9 541.023 324.2 520.623 324.2C498.723 324.2 485.623 338.4 485.623 360.9C485.623 383.4 499.723 397.8 520.623 397.8Z"/>
<path d="M577.423 396L593.023 396L593.023 338.1L615.223 338.1L615.223 326L555.323 326L555.323 338.1L577.423 338.1L577.423 396Z"/>
<path d="M659.523 396L675.123 396L675.123 338.1L697.323 338.1L697.323 326L637.423 326L637.423 338.1L659.523 338.1L659.523 396Z"/>
<path d="M732.923 397.8C752.723 397.8 767.723 385 767.723 361C767.723 337 752.723 324.2 732.923 324.2C713.023 324.2 698.123 337 698.123 361C698.123 385 713.023 397.8 732.923 397.8ZM714.823 361C714.823 343.9 722.223 336.3 732.923 336.3C743.623 336.3 751.023 343.9 751.023 361C751.023 378.1 743.623 385.7 732.923 385.7C722.223 385.7 714.823 378.1 714.823 361Z"/>
<path d="M816.023 396L831.623 396L831.623 368.2L856.323 326L838.323 326L823.923 353.3L823.723 353.3L809.323 326L791.323 326L816.023 368.2L816.023 396Z"/>
<path d="M888.823 397.8C908.623 397.8 923.623 385 923.623 361C923.623 337 908.623 324.2 888.823 324.2C868.923 324.2 854.023 337 854.023 361C854.023 385 868.923 397.8 888.823 397.8ZM870.723 361C870.723 343.9 878.123 336.3 888.823 336.3C899.523 336.3 906.923 343.9 906.923 361C906.923 378.1 899.523 385.7 888.823 385.7C878.123 385.7 870.723 378.1 870.723 361Z"/>
<path d="M960.823 397.8C977.123 397.8 989.623 388.1 989.623 370.4L989.623 326L974.023 326L974.023 369.7C974.023 380.2 968.723 385.7 960.823 385.7C952.823 385.7 947.523 380.2 947.523 369.7L947.523 326L931.923 326L931.923 370.4C931.923 388.1 944.523 397.8 960.823 397.8Z"/>
<path d="M1000.62 396L1016.22 396L1016.22 369.8L1024.62 369.8C1034.22 369.8 1037.42 372.6 1039.92 383.8L1042.62 396L1058.92 396L1054.92 381.5C1052.22 372 1048.62 366 1040.42 363L1040.42 362.8C1051.12 360.8 1056.82 354.1 1056.82 345C1056.82 333.4 1047.72 326 1031.72 326L1000.62 326L1000.62 396ZM1016.22 357.7L1016.22 338.1L1028.22 338.1C1036.82 338.1 1040.72 341.7 1040.72 347.7C1040.72 354 1036.22 357.7 1026.52 357.7L1016.22 357.7Z"/>
<path d="M1113.72 397.8C1132.82 397.8 1143.92 388.3 1143.92 374C1143.92 362.7 1137.02 353.7 1119.72 353.7L1110.92 353.7C1103.32 353.7 1100.22 350.4 1100.22 345.7C1100.22 339.9 1104.92 336.3 1113.22 336.3C1122.02 336.3 1126.52 340.3 1126.72 348.8L1142.92 348.8C1142.62 333.7 1133.02 324.2 1113.42 324.2C1094.42 324.2 1084.02 333 1084.02 346.7C1084.02 358.2 1091.42 366.2 1107.12 366.2L1115.92 366.2C1124.02 366.2 1127.32 369.8 1127.32 375C1127.32 381.6 1122.12 385.7 1113.92 385.7C1105.12 385.7 1099.82 381.2 1099.62 371.8L1083.02 371.8C1083.22 388 1094.12 397.8 1113.72 397.8Z"/>
<path d="M1152.42 396L1168.02 396L1168.02 370.6L1185.02 370.6C1199.02 370.6 1209.12 362.6 1209.12 348.4C1209.12 334.1 1199.02 326 1185.02 326L1152.42 326L1152.42 396ZM1168.02 358.5L1168.02 338.1L1181.12 338.1C1188.52 338.1 1193.02 342.2 1193.02 348.4C1193.02 354.6 1188.52 358.5 1181.12 358.5L1168.02 358.5Z"/>
<path d="M1203.22 396L1219.52 396L1224.62 381.2L1250.02 381.2L1255.02 396L1271.72 396L1245.32 326L1229.62 326L1203.22 396ZM1228.72 369.1L1230.92 362.7C1234.02 353.5 1235.92 347 1237.22 341.9L1237.32 341.9C1238.62 347 1240.52 353.5 1243.42 362L1245.82 369.1L1228.72 369.1Z"/>
<path d="M1306.42 397.8C1326.52 397.8 1337.42 384.9 1339.32 370.1L1322.92 370.1C1322.12 378.1 1317.02 385.7 1306.42 385.7C1295.52 385.7 1288.12 377.4 1288.12 360.9C1288.12 344.4 1295.02 336.3 1306.42 336.3C1317.22 336.3 1322.22 343.7 1322.92 352.4L1339.32 352.4C1337.92 336.9 1326.82 324.2 1306.42 324.2C1284.52 324.2 1271.42 338.4 1271.42 360.9C1271.42 383.4 1285.52 397.8 1306.42 397.8Z"/>
<path d="M1347.42 396L1398.12 396L1398.12 384.5L1363.12 384.5L1363.12 366.3L1394.12 366.3L1394.12 354.8L1363.12 354.8L1363.12 337.5L1398.02 337.5L1398.02 326L1347.42 326L1347.42 396Z"/>
</g>
</g>
</svg>
