<?xml version="1.0" encoding="UTF-8" standalone="no"?>
<!DOCTYPE svg PUBLIC "-//W3C//DTD SVG 1.1//EN" "http://www.w3.org/Graphics/SVG/1.1/DTD/svg11.dtd">
<!-- Created with Vectornator (http://vectornator.io/) -->
<svg height="100%" stroke-miterlimit="10" style="fill-rule:nonzero;clip-rule:evenodd;stroke-linecap:round;stroke-linejoin:round;" version="1.1" viewBox="0 0 1536 396" width="100%" xml:space="preserve" xmlns="http://www.w3.org/2000/svg" xmlns:xlink="http://www.w3.org/1999/xlink">
<defs/>
<clipPath id="ArtboardFrame">
<rect height="396" width="1536" x="0" y="0"/>
</clipPath>
<g clip-path="url(#ArtboardFrame)" id="Layer-1">
<g fill="#ffffff" opacity="1" stroke="none">
<path d="M70.4653 397.8C90.5653 397.8 101.465 384.9 103.365 370.1L86.9653 370.1C86.1653 378.1 81.0653 385.7 70.4653 385.7C59.5653 385.7 52.1653 377.4 52.1653 360.9C52.1653 344.4 59.0653 336.3 70.4653 336.3C81.2653 336.3 86.2653 343.7 86.9653 352.4L103.365 352.4C101.965 336.9 90.8653 324.2 70.4653 324.2C48.5653 324.2 35.4653 338.4 35.4653 360.9C35.4653 383.4 49.5653 397.8 70.4653 397.8Z"/>
<path d="M143.765 397.8C163.565 397.8 178.565 385 178.565 361C178.565 337 163.565 324.2 143.765 324.2C123.865 324.2 108.965 337 108.965 361C108.965 385 123.865 397.8 143.765 397.8ZM125.665 361C125.665 343.9 133.065 336.3 143.765 336.3C154.465 336.3 161.865 343.9 161.865 361C161.865 378.1 154.465 385.7 143.765 385.7C133.065 385.7 125.665 378.1 125.665 361Z"/>
<path d="M229.365 396L247.765 396L247.765 326L232.465 326L232.465 360.6L232.565 372.6L232.365 372.6L205.865 326L186.865 326L186.865 396L202.165 396L202.165 360.8L202.065 348.8L202.265 348.8L229.365 396Z"/>
<path d="M258.765 396L309.465 396L309.465 384.5L274.465 384.5L274.465 366.3L305.465 366.3L305.465 354.8L274.465 354.8L274.465 337.5L309.365 337.5L309.365 326L258.765 326L258.765 396ZM276.865 319.7L291.765 319.7L301.765 303.5L284.865 303.5L276.865 319.7Z"/>
<path d="M348.465 397.8C368.565 397.8 379.465 384.9 381.365 370.1L364.965 370.1C364.165 378.1 359.065 385.7 348.465 385.7C337.565 385.7 330.165 377.4 330.165 360.9C330.165 344.4 337.065 336.3 348.465 336.3C359.265 336.3 364.265 343.7 364.965 352.4L381.365 352.4C379.965 336.9 368.865 324.2 348.465 324.2C326.565 324.2 313.465 338.4 313.465 360.9C313.465 383.4 327.565 397.8 348.465 397.8Z"/>
<path d="M405.265 396L420.865 396L420.865 338.1L443.065 338.1L443.065 326L383.165 326L383.165 338.1L405.265 338.1L405.265 396Z"/>
<path d="M432.965 396L449.265 396L454.365 381.2L479.765 381.2L484.765 396L501.465 396L475.065 326L459.365 326L432.965 396ZM458.465 369.1L460.665 362.7C463.765 353.5 465.665 347 466.965 341.9L467.065 341.9C468.365 347 470.265 353.5 473.165 362L475.565 369.1L458.465 369.1Z"/>
<path d="M513.465 396L529.065 396L529.065 338.1L551.265 338.1L551.265 326L491.365 326L491.365 338.1L513.465 338.1L513.465 396Z"/>
<path d="M557.965 396L608.665 396L608.665 384.5L573.665 384.5L573.665 366.3L604.665 366.3L604.665 354.8L573.665 354.8L573.665 337.5L608.565 337.5L608.565 326L557.965 326L557.965 396Z"/>
<path d="M668.565 397.8C688.665 397.8 699.565 384.9 701.465 370.1L685.065 370.1C684.265 378.1 679.165 385.7 668.565 385.7C657.665 385.7 650.265 377.4 650.265 360.9C650.265 344.4 657.165 336.3 668.565 336.3C679.365 336.3 684.365 343.7 685.065 352.4L701.465 352.4C700.065 336.9 688.965 324.2 668.565 324.2C646.665 324.2 633.565 338.4 633.565 360.9C633.565 383.4 647.665 397.8 668.565 397.8Z"/>
<path d="M741.865 397.8C761.665 397.8 776.665 385 776.665 361C776.665 337 761.665 324.2 741.865 324.2C721.965 324.2 707.065 337 707.065 361C707.065 385 721.965 397.8 741.865 397.8ZM723.765 361C723.765 343.9 731.165 336.3 741.865 336.3C752.565 336.3 759.965 343.9 759.965 361C759.965 378.1 752.565 385.7 741.865 385.7C731.165 385.7 723.765 378.1 723.765 361Z"/>
<path d="M827.465 396L845.865 396L845.865 326L830.565 326L830.565 360.6L830.665 372.6L830.465 372.6L803.965 326L784.965 326L784.965 396L800.265 396L800.265 360.8L800.165 348.8L800.365 348.8L827.465 396Z"/>
<path d="M894.465 396L910.065 396L910.065 338.1L932.265 338.1L932.265 326L872.365 326L872.365 338.1L894.465 338.1L894.465 396Z"/>
<path d="M967.865 397.8C984.165 397.8 996.665 388.1 996.665 370.4L996.665 326L981.065 326L981.065 369.7C981.065 380.2 975.765 385.7 967.865 385.7C959.865 385.7 954.565 380.2 954.565 369.7L954.565 326L938.965 326L938.965 370.4C938.965 388.1 951.565 397.8 967.865 397.8Z"/>
<path d="M1027.47 396L1078.17 396L1078.17 384.5L1043.17 384.5L1043.17 366.3L1074.17 366.3L1074.17 354.8L1043.17 354.8L1043.17 337.5L1078.07 337.5L1078.07 326L1027.47 326L1027.47 396Z"/>
<path d="M1128.47 396L1146.87 396L1146.87 326L1131.57 326L1131.57 360.6L1131.67 372.6L1131.47 372.6L1104.97 326L1085.97 326L1085.97 396L1101.27 396L1101.27 360.8L1101.17 348.8L1101.37 348.8L1128.47 396Z"/>
<path d="M1175.67 396L1191.27 396L1191.27 338.1L1213.47 338.1L1213.47 326L1153.57 326L1153.57 338.1L1175.67 338.1L1175.67 396Z"/>
<path d="M1249.07 397.8C1268.87 397.8 1283.87 385 1283.87 361C1283.87 337 1268.87 324.2 1249.07 324.2C1229.17 324.2 1214.27 337 1214.27 361C1214.27 385 1229.17 397.8 1249.07 397.8ZM1230.97 361C1230.97 343.9 1238.37 336.3 1249.07 336.3C1259.77 336.3 1267.17 343.9 1267.17 361C1267.17 378.1 1259.77 385.7 1249.07 385.7C1238.37 385.7 1230.97 378.1 1230.97 361Z"/>
<path d="M1292.17 396L1307.77 396L1307.77 369.8L1316.17 369.8C1325.77 369.8 1328.97 372.6 1331.47 383.8L1334.17 396L1350.47 396L1346.47 381.5C1343.77 372 1340.17 366 1331.97 363L1331.97 362.8C1342.67 360.8 1348.37 354.1 1348.37 345C1348.37 333.4 1339.27 326 1323.27 326L1292.17 326L1292.17 396ZM1307.77 357.7L1307.77 338.1L1319.77 338.1C1328.37 338.1 1332.27 341.7 1332.27 347.7C1332.27 354 1327.77 357.7 1318.07 357.7L1307.77 357.7Z"/>
<path d="M1399.77 396L1418.17 396L1418.17 326L1402.87 326L1402.87 360.6L1402.97 372.6L1402.77 372.6L1376.27 326L1357.27 326L1357.27 396L1372.57 396L1372.57 360.8L1372.47 348.8L1372.67 348.8L1399.77 396Z"/>
<path d="M1461.27 397.8C1481.07 397.8 1496.07 385 1496.07 361C1496.07 337 1481.07 324.2 1461.27 324.2C1441.37 324.2 1426.47 337 1426.47 361C1426.47 385 1441.37 397.8 1461.27 397.8ZM1443.17 361C1443.17 343.9 1450.57 336.3 1461.27 336.3C1471.97 336.3 1479.37 343.9 1479.37 361C1479.37 378.1 1471.97 385.7 1461.27 385.7C1450.57 385.7 1443.17 378.1 1443.17 361Z"/>
</g>
</g>
</svg>
